 Full Credits to (Pitic):
 ######## ######## ######## ##          ######## ########  ######## ######
 ##       ##       ##       ##          ##       ##     ## ##       ##       
 ##       ##       ##       ##          ##       ##     ## ##       ##       
 ######   ######   ######   ##          ######   ########  ######   ######   
 ##       ##       ##       ##          ##       ##   ##   ##       ##       
 ##       ##       ##       ##          ##       ##    ##  ##       ##       
 ##       ######## ######## ########    ##       ##     ## ######## ######


 Genre:Fantasy | Horror | Mystery 
 Language:English
 IMDb:  http://www.imdb.com/title/tt1486185/
 Source:KiNOPARK/IMAGINE.Thanks!
 Subtitles:Romana

 Format : MPEG-4
 Format profile : Base Media
 Codec ID : isom
 File size : 1.29 GiB
 Duration : 1h 39mn
 Overall bit rate : 1 848 Kbps

 Video
 ID : 1
 Format : AVC
 Format/Info : Advanced Video Codec
 Format profile : High@L4.1
 Format settings, CABAC : Yes
 Format settings, ReFrames : 3 frames
 Codec ID : avc1
 Codec ID/Info : Advanced Video Coding
 Duration : 1h 39mn
 Bit rate mode : Variable
 Bit rate : 1 589 Kbps
 Maximum bit rate : 6 433 Kbps
 Width : 720 pixels
 Height : 304 pixels
 Display aspect ratio : 2.35:1
 Frame rate mode : Constant
 Frame rate : 23.976 fps
 Color space : YUV
 Chroma subsampling : 4:2:0
 Bit depth : 8 bits
 Scan type : Progressive
 Bits/(Pixel*Frame) : 0.303
 Stream size : 1.13 GiB (88%)
 Writing library : x264

 Audio
 ID : 2
 Format : AAC
 Format/Info : Advanced Audio Codec
 Format version : Version 4
 Format profile : LC
 Format settings, SBR : No
 Codec ID : 40
 Duration : 1h 39mn
 Bit rate mode : Variable
 Bit rate : 224 Kbps
 Maximum bit rate : 278 Kbps
 Channel(s) : 2 channels
 Channel positions : Front: L R
 Sampling rate : 44.1 KHz
 Stream size : 160 MiB (12%)


 Plot:
 Set in a medieval village that is haunted by a werewolf, a young girl falls 
 for  an orphaned woodcutter, much to her family's displeasure.





 ==================================  http://thepiratebay.org/user/hiest
 ==================================





 Screen Shots:
  http://www.pix2links.com/images/54132739074879540337.png
  http://www.pix2links.com/images/38688349065480042532.png
  http://www.pix2links.com/images/28184603897569133931.png
  http://www.pix2links.com/images/99028568954109979379.png
  http://www.pix2links.com/images/98058428508422862483.png
  http://www.pix2links.com/images/98058428508422862483.png


 Full Credits to (Pitic):
 ######## ######## ######## ##          ######## ########  ######## ######
 ##       ##       ##       ##          ##       ##     ## ##       ##       
 ##       ##       ##       ##          ##       ##     ## ##       ##       
 ######   ######   ######   ##          ######   ########  ######   ######   
 ##       ##       ##       ##          ##       ##   ##   ##       ##       
 ##       ##       ##       ##          ##       ##    ##  ##       ##       
 ##       ######## ######## ########    ##       ##     ## ######## ######